S5_12_1.mot
version=1
nRows=27
nColumns=39
inDegrees=no
endheader
time	sternoclavicular_r2	sternoclavicular_r3	unrotscap_r3	unrotscap_r2	acromioclavicular_r2	acromioclavicular_r3	acromioclavicular_r1	unrothum_r1	unrothum_r3	unrothum_r2	elv_angle	shoulder_elv	shoulder1_r2	shoulder_rot	elbow_flexion	pro_sup	deviation	flexion	cmc_abduction	cmc_flexion	mp_flexion	ip_flexion	mcp2_flexion	mcp2_abduction	pm2_flexion	md2_flexion	mcp3_flexion	mcp3_abduction	pm3_flexion	md3_flexion	mcp4_flexion	mcp4_abduction	pm4_flexion	md4_flexion	mcp5_flexion	mcp5_abduction	pm5_flexion	md5_flexion
0.00000000	-0.01374217	-0.06791628	-0.00450210	0.10237719	0.09595773	0.03225127	0.02012635	-0.05543870	0.09163850	0.15485383	0.15135129	0.02743690	0.14652497	0.14652497	1.13339660	0.77710891	0.00000000	0.00000000	0.00000000	0.00000000	0.00000000	0.00000000	0.00000000	0.00000000	0.00000000	0.00000000	0.00000000	0.00000000	0.00000000	0.00000000	0.00000000	0.00000000	0.00000000	0.00000000	0.00000000	0.00000000	0.00000000	0.00000000
0.00500000	-0.01367176	-0.06804776	-0.00452368	0.10150766	0.09510196	0.03209676	0.02013880	-0.05568329	0.09132660	0.15405115	0.15044547	0.02742779	0.14562367	0.14562367	1.14357300	0.97529095	0.00000000	0.00000000	0.00000000	0.00000000	0.00000000	0.00000000	0.00000000	0.00000000	0.00000000	0.00000000	0.00000000	0.00000000	0.00000000	0.00000000	0.00000000	0.00000000	0.00000000	0.00000000	0.00000000	0.00000000	0.00000000	0.00000000
0.01000000	-0.01363310	-0.06813420	-0.00462842	0.10112145	0.09473641	0.03195704	0.02021098	-0.05594332	0.09127067	0.15374428	0.15008403	0.02753768	0.14526775	0.14526775	1.15008099	1.09795016	0.00000000	0.00000000	0.00000000	0.00000000	0.00000000	0.00000000	0.00000000	0.00000000	0.00000000	0.00000000	0.00000000	0.00000000	0.00000000	0.00000000	0.00000000	0.00000000	0.00000000	0.00000000	0.00000000	0.00000000	0.00000000	0.00000000
0.01500000	-0.01360400	-0.06820080	-0.00476332	0.10093148	0.09456931	0.03182624	0.02030499	-0.05620750	0.09131743	0.15363745	0.14994249	0.02769435	0.14513210	0.14513210	1.15403603	1.17281945	0.00000000	0.00000000	0.00000000	0.00000000	0.00000000	0.00000000	0.00000000	0.00000000	0.00000000	0.00000000	0.00000000	0.00000000	0.00000000	0.00000000	0.00000000	0.00000000	0.00000000	0.00000000	0.00000000	0.00000000	0.00000000	0.00000000
0.02000000	-0.01357500	-0.06825771	-0.00490603	0.10081860	0.09447955	0.03170197	0.02040476	-0.05647127	0.09140294	0.15360789	0.14988602	0.02786758	0.14508165	0.14508165	1.15638874	1.21829622	0.00000000	0.00000000	0.00000000	0.00000000	0.00000000	0.00000000	0.00000000	0.00000000	0.00000000	0.00000000	0.00000000	0.00000000	0.00000000	0.00000000	0.00000000	0.00000000	0.00000000	0.00000000	0.00000000	0.00000000	0.00000000	0.00000000
0.02500000	-0.01354228	-0.06830863	-0.00504729	0.10073578	0.09441926	0.03158354	0.02050358	-0.05673255	0.09150166	0.15360702	0.14986126	0.02804510	0.14506293	0.14506293	1.15777775	1.24587737	0.00000000	0.00000000	0.00000000	0.00000000	0.00000000	0.00000000	0.00000000	0.00000000	0.00000000	0.00000000	0.00000000	0.00000000	0.00000000	0.00000000	0.00000000	0.00000000	0.00000000	0.00000000	0.00000000	0.00000000	0.00000000	0.00000000
0.03000000	-0.01350424	-0.06835479	-0.00518298	0.10066453	0.09436959	0.03147097	0.02059843	-0.05699006	0.09160323	0.15361555	0.14984706	0.02822169	0.14505473	0.14505473	1.15860374	1.26259941	0.00000000	0.00000000	0.00000000	0.00000000	0.00000000	0.00000000	0.00000000	0.00000000	0.00000000	0.00000000	0.00000000	0.00000000	0.00000000	0.00000000	0.00000000	0.00000000	0.00000000	0.00000000	0.00000000	0.00000000	0.00000000	0.00000000
0.03500000	-0.01346020	-0.06839643	-0.00531092	0.10059747	0.09432291	0.03136462	0.02068772	-0.05724276	0.09170318	0.15362559	0.14983480	0.02839483	0.14504840	0.14504840	1.15911308	1.27273814	0.00000000	0.00000000	0.00000000	0.00000000	0.00000000	0.00000000	0.00000000	0.00000000	0.00000000	0.00000000	0.00000000	0.00000000	0.00000000	0.00000000	0.00000000	0.00000000	0.00000000	0.00000000	0.00000000	0.00000000	0.00000000	0.00000000
0.04000000	-0.01340989	-0.06843345	-0.00542971	0.10053160	0.09427607	0.03126500	0.02077040	-0.05748963	0.09179935	0.15363369	0.14982076	0.02856304	0.14504020	0.14504020	1.15945685	1.27888589	0.00000000	0.00000000	0.00000000	0.00000000	0.00000000	0.00000000	0.00000000	0.00000000	0.00000000	0.00000000	0.00000000	0.00000000	0.00000000	0.00000000	0.00000000	0.00000000	0.00000000	0.00000000	0.00000000	0.00000000	0.00000000	0.00000000
0.04500000	-0.01335316	-0.06846561	-0.00553821	0.10046568	0.09422768	0.03117273	0.02084567	-0.05772961	0.09189050	0.15363820	0.14980322	0.02872523	0.14502837	0.14502837	1.15972809	1.28261358	0.00000000	0.00000000	0.00000000	0.00000000	0.00000000	0.00000000	0.00000000	0.00000000	0.00000000	0.00000000	0.00000000	0.00000000	0.00000000	0.00000000	0.00000000	0.00000000	0.00000000	0.00000000	0.00000000	0.00000000	0.00000000	0.00000000
0.05000000	-0.01328998	-0.06849265	-0.00563542	0.10039925	0.09417713	0.03108845	0.02091279	-0.05796161	0.09197578	0.15363825	0.14978133	0.02888050	0.14501202	0.14501202	1.15998470	1.28487328	0.00000000	0.00000000	0.00000000	0.00000000	0.00000000	0.00000000	0.00000000	0.00000000	0.00000000	0.00000000	0.00000000	0.00000000	0.00000000	0.00000000	0.00000000	0.00000000	0.00000000	0.00000000	0.00000000	0.00000000	0.00000000	0.00000000
0.05500000	-0.01322039	-0.06851424	-0.00572037	0.10033218	0.09412414	0.03101284	0.02097109	-0.05818451	0.09205453	0.15363328	0.14975458	0.02902797	0.14499062	0.14499062	1.16026329	1.28624221	0.00000000	0.00000000	0.00000000	0.00000000	0.00000000	0.00000000	0.00000000	0.00000000	0.00000000	0.00000000	0.00000000	0.00000000	0.00000000	0.00000000	0.00000000	0.00000000	0.00000000	0.00000000	0.00000000	0.00000000	0.00000000	0.00000000
0.06000000	-0.01314444	-0.06853011	-0.00579211	0.10026453	0.09406864	0.03094662	0.02101988	-0.05839712	0.09212615	0.15362291	0.14972268	0.02916683	0.14496386	0.14496386	1.16058756	1.28707042	0.00000000	0.00000000	0.00000000	0.00000000	0.00000000	0.00000000	0.00000000	0.00000000	0.00000000	0.00000000	0.00000000	0.00000000	0.00000000	0.00000000	0.00000000	0.00000000	0.00000000	0.00000000	0.00000000	0.00000000	0.00000000	0.00000000
0.06500000	-0.01306224	-0.06853995	-0.00584971	0.10019642	0.09401061	0.03089050	0.02105852	-0.05859826	0.09219010	0.15360686	0.14968544	0.02929624	0.14493149	0.14493149	1.16097334	1.28757031	0.00000000	0.00000000	0.00000000	0.00000000	0.00000000	0.00000000	0.00000000	0.00000000	0.00000000	0.00000000	0.00000000	0.00000000	0.00000000	0.00000000	0.00000000	0.00000000	0.00000000	0.00000000	0.00000000	0.00000000	0.00000000	0.00000000
0.07000000	-0.01297394	-0.06854350	-0.00589224	0.10012807	0.09395011	0.03084520	0.02108636	-0.05878671	0.09224586	0.15358488	0.14964272	0.02941538	0.14489336	0.14489336	1.16143172	1.28787079	0.00000000	0.00000000	0.00000000	0.00000000	0.00000000	0.00000000	0.00000000	0.00000000	0.00000000	0.00000000	0.00000000	0.00000000	0.00000000	0.00000000	0.00000000	0.00000000	0.00000000	0.00000000	0.00000000	0.00000000	0.00000000	0.00000000
0.07500000	-0.01287968	-0.06854048	-0.00591877	0.10005972	0.09388725	0.03081146	0.02110276	-0.05896121	0.09229295	0.15355678	0.14959445	0.02952345	0.14484933	0.14484933	1.16197079	1.28805009	0.00000000	0.00000000	0.00000000	0.00000000	0.00000000	0.00000000	0.00000000	0.00000000	0.00000000	0.00000000	0.00000000	0.00000000	0.00000000	0.00000000	0.00000000	0.00000000	0.00000000	0.00000000	0.00000000	0.00000000	0.00000000	0.00000000
0.08000000	-0.01277967	-0.06853066	-0.00592840	0.09999163	0.09382213	0.03079002	0.02110708	-0.05912052	0.09233089	0.15352238	0.14954056	0.02961962	0.14479933	0.14479933	1.16259686	1.28815573	0.00000000	0.00000000	0.00000000	0.00000000	0.00000000	0.00000000	0.00000000	0.00000000	0.00000000	0.00000000	0.00000000	0.00000000	0.00000000	0.00000000	0.00000000	0.00000000	0.00000000	0.00000000	0.00000000	0.00000000	0.00000000	0.00000000
0.08500000	-0.01267415	-0.06851381	-0.00592023	0.09992411	0.09375492	0.03078162	0.02109872	-0.05926335	0.09235920	0.15348151	0.14948103	0.02970309	0.14474330	0.14474330	1.16331507	1.28821657	0.00000000	0.00000000	0.00000000	0.00000000	0.00000000	0.00000000	0.00000000	0.00000000	0.00000000	0.00000000	0.00000000	0.00000000	0.00000000	0.00000000	0.00000000	0.00000000	0.00000000	0.00000000	0.00000000	0.00000000	0.00000000	0.00000000
0.09000000	-0.01256335	-0.06848974	-0.00589334	0.09985745	0.09368579	0.03078701	0.02107707	-0.05938843	0.09237746	0.15343406	0.14941587	0.02977306	0.14468119	0.14468119	1.16412978	1.28825012	0.00000000	0.00000000	0.00000000	0.00000000	0.00000000	0.00000000	0.00000000	0.00000000	0.00000000	0.00000000	0.00000000	0.00000000	0.00000000	0.00000000	0.00000000	0.00000000	0.00000000	0.00000000	0.00000000	0.00000000	0.00000000	0.00000000
0.09500000	-0.01244758	-0.06845827	-0.00584688	0.09979201	0.09361491	0.03080693	0.02104153	-0.05949445	0.09238523	0.15337990	0.14934509	0.02982872	0.14461299	0.14461299	1.16504486	1.28826704	0.00000000	0.00000000	0.00000000	0.00000000	0.00000000	0.00000000	0.00000000	0.00000000	0.00000000	0.00000000	0.00000000	0.00000000	0.00000000	0.00000000	0.00000000	0.00000000	0.00000000	0.00000000	0.00000000	0.00000000	0.00000000	0.00000000
0.10000000	-0.01232715	-0.06841925	-0.00577999	0.09972814	0.09354251	0.03084211	0.02099154	-0.05958013	0.09238210	0.15331894	0.14926876	0.02986930	0.14453873	0.14453873	1.16606380	1.28827380	0.00000000	0.00000000	0.00000000	0.00000000	0.00000000	0.00000000	0.00000000	0.00000000	0.00000000	0.00000000	0.00000000	0.00000000	0.00000000	0.00000000	0.00000000	0.00000000	0.00000000	0.00000000	0.00000000	0.00000000	0.00000000	0.00000000
0.10500000	-0.01220240	-0.06837257	-0.00569181	0.09966619	0.09346881	0.03089330	0.02092655	-0.05964417	0.09236770	0.15325109	0.14918693	0.02989404	0.14445844	0.14445844	1.16718977	1.28827433	0.00000000	0.00000000	0.00000000	0.00000000	0.00000000	0.00000000	0.00000000	0.00000000	0.00000000	0.00000000	0.00000000	0.00000000	0.00000000	0.00000000	0.00000000	0.00000000	0.00000000	0.00000000	0.00000000	0.00000000	0.00000000	0.00000000
0.11000000	-0.01207369	-0.06831815	-0.00558154	0.09960655	0.09339404	0.03096122	0.02084602	-0.05968528	0.09234166	0.15317631	0.14909972	0.02990216	0.14437218	0.14437218	1.16842569	1.28827103	0.00000000	0.00000000	0.00000000	0.00000000	0.00000000	0.00000000	0.00000000	0.00000000	0.00000000	0.00000000	0.00000000	0.00000000	0.00000000	0.00000000	0.00000000	0.00000000	0.00000000	0.00000000	0.00000000	0.00000000	0.00000000	0.00000000
0.11500000	-0.01194143	-0.06825592	-0.00544839	0.09954962	0.09331847	0.03104658	0.02074944	-0.05970216	0.09230363	0.15309455	0.14900725	0.02989295	0.14428003	0.14428003	1.16977423	1.28826537	0.00000000	0.00000000	0.00000000	0.00000000	0.00000000	0.00000000	0.00000000	0.00000000	0.00000000	0.00000000	0.00000000	0.00000000	0.00000000	0.00000000	0.00000000	0.00000000	0.00000000	0.00000000	0.00000000	0.00000000	0.00000000	0.00000000
0.12000000	-0.01180605	-0.06818589	-0.00529160	0.09949580	0.09324236	0.03115011	0.02063635	-0.05969353	0.09225332	0.15300579	0.14890965	0.02986569	0.14418213	0.14418213	1.17123786	1.28825824	0.00000000	0.00000000	0.00000000	0.00000000	0.00000000	0.00000000	0.00000000	0.00000000	0.00000000	0.00000000	0.00000000	0.00000000	0.00000000	0.00000000	0.00000000	0.00000000	0.00000000	0.00000000	0.00000000	0.00000000	0.00000000	0.00000000
0.12500000	-0.01166797	-0.06810806	-0.00511044	0.09944553	0.09316602	0.03127250	0.02050630	-0.05965815	0.09219044	0.15291002	0.14880711	0.02981968	0.14407859	0.14407859	1.17281877	1.28825020	0.00000000	0.00000000	0.00000000	0.00000000	0.00000000	0.00000000	0.00000000	0.00000000	0.00000000	0.00000000	0.00000000	0.00000000	0.00000000	0.00000000	0.00000000	0.00000000	0.00000000	0.00000000	0.00000000	0.00000000	0.00000000	0.00000000
0.13000000	-0.01152769	-0.06802250	-0.00490423	0.09939923	0.09308974	0.03141442	0.02035886	-0.05959475	0.09211474	0.15280728	0.14869981	0.02975428	0.14396960	0.14396960	1.17451895	1.28824160	0.00000000	0.00000000	0.00000000	0.00000000	0.00000000	0.00000000	0.00000000	0.00000000	0.00000000	0.00000000	0.00000000	0.00000000	0.00000000	0.00000000	0.00000000	0.00000000	0.00000000	0.00000000	0.00000000	0.00000000	0.00000000	0.00000000
